<svg width="110" height="110" viewBox="0 0 110 110" fill="none" xmlns="http://www.w3.org/2000/svg">
<path d="M55 13.75V96.25" stroke="black" stroke-width="15" stroke-linecap="round" stroke-linejoin="round"/>
<path d="M83.2199 78.6366C86.1489 75.7077 86.1489 70.959 83.2199 68.03C80.291 65.1011 75.5423 65.1011 72.6133 68.03L83.2199 78.6366ZM55 96.25L49.6967 101.553C51.1032 102.96 53.0109 103.75 55 103.75C56.9891 103.75 58.8968 102.96 60.3033 101.553L55 96.25ZM37.3866 68.03C34.4577 65.1011 29.7089 65.1011 26.78 68.03C23.8511 70.959 23.8511 75.7077 26.78 78.6366L37.3866 68.03ZM72.6133 68.03L49.6967 90.9467L60.3033 101.553L83.2199 78.6366L72.6133 68.03ZM60.3033 90.9467L37.3866 68.03L26.78 78.6366L49.6967 101.553L60.3033 90.9467Z" fill="black"/>
</svg>
